HIERARCHY
ROOT root
{
	OFFSET 0.000000 0.000000 0.000000
	CHANNELS 6 Xposition Yposition Zposition Zrotation Yrotation Xrotation
	JOINT lhip
	{
		OFFSET 0.058581 -0.082280 -0.017664
		CHANNELS 3 Zrotation Yrotation Xrotation
		JOINT lknee
		{
			OFFSET 0.043451 -0.386469 0.008037
			CHANNELS 3 Zrotation Yrotation Xrotation
			JOINT lankle
			{
				OFFSET -0.014790 -0.426874 -0.037428
				CHANNELS 3 Zrotation Yrotation Xrotation
				JOINT ltoe
				{
					OFFSET 0.041054 -0.060286 0.122042
					CHANNELS 3 Zrotation Yrotation Xrotation
					End Site
					{
						OFFSET 0.000000 0.000000 0.000000
					}
				}
			}
		}
	}
	JOINT rhip
	{
		OFFSET -0.060310 -0.090513 -0.013543
		CHANNELS 3 Zrotation Yrotation Xrotation
		JOINT rknee
		{
			OFFSET -0.043257 -0.383688 -0.004843
			CHANNELS 3 Zrotation Yrotation Xrotation
			JOINT rankle
			{
				OFFSET 0.019056 -0.420046 -0.034562
				CHANNELS 3 Zrotation Yrotation Xrotation
				JOINT rtoe
				{
					OFFSET -0.034840 -0.062106 0.130323
					CHANNELS 3 Zrotation Yrotation Xrotation
					End Site
					{
						OFFSET 0.000000 0.000000 0.000000
					}
				}
			}
		}
	}
	JOINT lowerback
	{
		OFFSET 0.004439 0.124404 -0.038385
		CHANNELS 3 Zrotation Yrotation Xrotation
		JOINT upperback
		{
			OFFSET 0.004488 0.137956 0.026820
			CHANNELS 3 Zrotation Yrotation Xrotation
			JOINT chest
			{
				OFFSET -0.002265 0.056032 0.002855
				CHANNELS 3 Zrotation Yrotation Xrotation
				JOINT lowerneck
				{
					OFFSET -0.013390 0.211636 -0.033468
					CHANNELS 3 Zrotation Yrotation Xrotation
					JOINT upperneck
					{
						OFFSET 0.010113 0.088937 0.050410
						CHANNELS 3 Zrotation Yrotation Xrotation
						End Site
						{
							OFFSET 0.000000 0.000000 0.000000
						}
					}
				}
				JOINT lclavicle
				{
					OFFSET 0.071702 0.114000 -0.018898
					CHANNELS 3 Zrotation Yrotation Xrotation
					JOINT lshoulder
					{
						OFFSET 0.122921 0.045205 -0.019046
						CHANNELS 3 Zrotation Yrotation Xrotation
						JOINT lelbow
						{
							OFFSET 0.255332 -0.015649 -0.022946
							CHANNELS 3 Zrotation Yrotation Xrotation
							JOINT lwrist
							{
								OFFSET 0.265709 0.012698 -0.007375
								CHANNELS 3 Zrotation Yrotation Xrotation
								End Site
								{
									OFFSET 0.000000 0.000000 0.000000
								}
							}
						}
					}
				}
				JOINT rclavicle
				{
					OFFSET -0.082954 0.112472 -0.023707
					CHANNELS 3 Zrotation Yrotation Xrotation
					JOINT rshoulder
					{
						OFFSET -0.113228 0.046853 -0.008472
						CHANNELS 3 Zrotation Yrotation Xrotation
						JOINT relbow
						{
							OFFSET -0.260127 -0.014369 -0.031269
							CHANNELS 3 Zrotation Yrotation Xrotation
							JOINT rwrist
							{
								OFFSET -0.269108 0.006794 -0.006027
								CHANNELS 3 Zrotation Yrotation Xrotation
								End Site
								{
									OFFSET 0.000000 0.000000 0.000000
								}
							}
						}
					}
				}
			}
		}
	}
}
MOTION
Frames: 13
Frame Time: 0.033333
-0.172162 0.020647 0.884450 108.016490 -0.374486 104.974723 11.098525 4.183661 -31.064585 -14.828219 7.117317 51.416524 3.174801 -1.364788 -31.401764 0.000000 -0.000000 0.000000 -13.436987 -0.421895 -19.631784 2.491208 -1.452442 67.804081 8.490340 0.192516 -11.416196 0.000000 -0.000000 0.000000 -5.584896 3.541696 31.383904 5.354698 -9.588242 3.287721 3.462806 -3.327756 -2.494533 -2.955512 16.846319 -16.131576 0.040905 7.638890 -5.956164 -21.884435 -26.707149 -5.275993 -42.339087 -32.799064 11.594248 7.842873 -45.389090 8.838542 0.449361 -7.613755 0.817689 26.421062 12.754610 -0.675071 43.373809 10.636908 7.460989 -53.168739 50.008934 -50.200540 -1.002600 8.732480 -27.254128 
-0.119825 0.081397 0.885820 110.479231 2.107588 104.125274 8.812377 4.218308 -23.753945 -14.041065 2.774734 48.885151 5.416263 2.878683 -35.121261 0.000000 -0.000000 0.000000 -10.818700 -0.702517 -28.939571 -1.187278 -7.344749 75.834301 3.088242 -5.813794 -18.046321 0.000000 -0.000000 0.000000 -4.321141 0.567215 32.033668 4.902391 -8.078829 1.953588 3.548933 -3.090568 -2.404627 -2.486018 18.156045 -11.569960 -0.912627 11.649884 -1.094464 -23.850472 -26.456363 -2.710111 -46.499298 -28.318196 8.331962 11.132260 -28.445365 1.598524 8.567272 -6.653156 4.041209 26.474283 16.200650 0.240893 47.137796 15.084476 10.165651 -44.751961 53.618242 -35.153355 2.267862 9.109622 -18.331414 
-0.061354 0.142331 0.889057 111.027293 4.886366 104.233217 7.702953 4.640796 -17.391527 -13.253506 -0.705920 46.851682 5.120268 5.422228 -33.651242 0.000000 -0.000000 0.000000 -7.812852 -0.702003 -40.018653 -2.394735 -11.999614 76.080894 0.236326 -6.639048 -21.693883 0.000000 -0.000000 0.000000 -3.164480 -2.098324 29.911768 5.065713 -5.126164 1.501675 3.378509 -2.443748 -0.489158 -0.819167 19.830381 -9.064317 -5.488620 11.490335 0.631943 -26.100813 -21.693539 -0.517927 -47.773608 -23.780815 6.551265 10.669808 -24.871205 -3.060037 11.053866 -5.114318 -2.819162 27.583980 16.983227 1.660292 49.594714 20.735538 13.809756 -40.784502 55.554564 -25.587004 4.090275 9.545494 -11.625467 
0.003357 0.208076 0.896413 110.687816 5.960486 102.580198 4.768052 2.666412 -8.886708 -12.172051 -4.171249 44.117976 2.677217 6.482347 -27.354945 0.000000 -0.000000 0.000000 -6.614111 0.977637 -47.330827 2.497139 -13.177715 66.434854 3.800720 -1.227196 -20.688625 0.000000 -0.000000 0.000000 -1.883818 -3.128222 29.065155 4.515567 -2.824894 3.560834 2.965861 -1.287332 -0.363101 -0.576297 21.512868 -8.257072 -7.275405 10.185766 0.567111 -26.407577 -17.644912 0.068785 -47.395630 -16.978250 8.009077 7.411326 -26.240092 -3.899314 6.144788 -6.871170 -5.369123 29.077424 18.007061 2.698377 49.335315 24.677123 15.427573 -39.591144 56.266836 -24.517503 3.077152 10.684322 -7.080222 
0.073011 0.274659 0.903425 110.812075 6.677983 101.144767 2.004488 0.945331 -2.591290 -11.386346 -7.158426 43.726339 -2.068202 4.839769 -14.970592 0.000000 -0.000000 0.000000 -5.836085 4.207653 -50.972447 5.649296 -10.344861 52.250113 4.407538 2.180113 -16.300418 0.000000 -0.000000 0.000000 -0.083838 -3.631198 27.540247 4.564242 -0.773236 5.864617 2.209828 -0.536352 0.131619 0.502187 21.491685 -8.216521 -8.557669 8.108896 -0.917360 -25.719116 -13.548701 0.282249 -45.948052 -9.215892 11.647549 1.710050 -29.728853 5.569179 5.021858 -9.133679 -1.357319 29.516242 17.862711 2.373515 48.416981 28.994301 15.588392 -37.479700 55.599594 -22.621385 0.542358 10.862001 -4.789000 
0.146976 0.340290 0.902638 114.479140 6.901954 99.881109 0.850463 -0.448140 -0.253032 -11.149918 -8.169729 48.146653 -3.357393 4.016159 -4.016373 0.000000 -0.000000 0.000000 -6.541772 7.340851 -49.669216 6.065462 -7.496962 40.799126 6.270234 2.843778 -11.358862 0.000000 -0.000000 0.000000 2.086388 -4.570880 26.290389 5.257987 -0.252487 7.100395 2.178719 -0.363180 -0.321283 -1.415991 21.074301 -5.590666 -10.460674 9.606623 -3.450388 -24.122638 -9.857112 2.266554 -46.561479 -1.058023 13.549002 -3.318368 -30.598352 16.565951 5.849770 -10.002389 2.194641 27.799925 17.202189 2.754439 47.171946 30.706467 13.839152 -42.142604 57.600271 -27.143635 -1.817018 10.058107 -5.988661 
0.220960 0.405266 0.890037 120.655321 4.982069 97.997621 -0.199026 -1.509978 -2.068656 -10.046399 -3.430087 59.330796 -1.844068 7.465693 -3.676418 0.000000 -0.000000 0.000000 -7.677562 6.962868 -46.116667 7.431760 -4.159842 43.136132 -3.236697 -4.524671 -12.840342 0.000000 -0.000000 0.000000 2.711874 -4.525031 24.806603 5.804921 -0.997882 9.133909 1.829215 -1.871503 -1.238224 -2.772686 19.513682 -4.643191 -12.393826 14.103174 -5.666008 -23.391088 -5.854181 5.045563 -44.937441 8.728071 8.806097 -8.277602 -31.452881 24.140756 1.969449 -9.487698 1.314234 25.606943 15.145760 2.533737 48.064867 28.952928 12.922978 -63.187696 61.816465 -47.828581 3.511576 9.252481 -5.910701 
0.291817 0.470291 0.875000 127.602869 3.523262 95.468592 0.416400 -0.134689 -7.258311 -7.255550 0.529284 72.623167 0.123831 10.795466 -4.656450 0.000000 -0.000000 0.000000 -8.866238 5.051600 -39.362192 5.596036 -4.327269 53.984635 -3.782048 -6.891325 -25.153489 0.000000 -0.000000 0.000000 3.233710 -3.305183 25.560420 5.416446 -2.326719 9.031890 1.085245 -2.819179 -0.011016 -3.555844 21.435918 -6.217074 -14.290629 16.025190 -8.378401 -21.339813 -3.226540 6.803624 -43.979679 18.260104 3.718849 -10.450320 -28.869424 25.237753 4.098982 -8.382131 -0.752507 23.188452 11.161424 -0.343441 51.256425 22.473047 12.051109 -96.180375 64.539549 -79.748263 0.899576 9.484179 -11.475695 
0.357271 0.538396 0.869027 134.078615 3.579056 95.407367 1.282732 1.035672 -16.553373 -7.173937 3.712090 81.686002 1.349766 9.595932 -5.598278 0.000000 -0.000000 0.000000 -9.082016 1.143029 -30.084080 6.614028 -5.840545 54.214183 -5.319330 -10.435824 -32.314895 0.000000 -0.000000 0.000000 4.553637 -1.493682 24.546449 5.545396 -4.030558 9.635024 0.671700 -3.351789 -0.186273 -5.315699 21.511618 -7.085003 -16.143562 18.684381 -12.203849 -21.157419 -0.551281 8.664449 -44.050149 26.743869 0.065568 -11.507349 -26.229464 26.387303 6.875928 -6.932463 -0.437042 21.003898 6.927389 -0.748034 54.117664 14.524632 11.295129 -128.927301 59.638470 -115.863992 0.362112 10.430143 -32.533189 
0.420582 0.608718 0.875840 138.141822 3.648103 96.200560 0.650270 2.710766 -25.462030 -9.692690 7.500966 82.801138 1.485539 5.426544 -7.936837 0.000000 -0.000000 0.000000 -9.358745 -2.542887 -19.733952 7.257417 -5.685442 49.707483 -4.072773 -7.687617 -33.658836 0.000000 -0.000000 0.000000 4.587231 1.794213 22.597897 5.469853 -5.848981 9.833794 0.208092 -3.379176 0.327454 -6.210165 23.282908 -5.674624 -17.315383 19.642247 -14.157495 -20.673970 2.205252 9.934784 -46.392626 32.800284 -3.382494 -13.177701 -24.114084 29.189562 3.817285 -5.521368 -0.516286 20.318346 2.233923 -0.620503 59.052534 10.450138 10.282708 -140.133582 54.892829 -125.519047 -2.668214 9.960313 -35.563790 
0.481142 0.685288 0.893903 140.562103 4.253838 97.166980 -0.449698 3.552804 -32.092803 -11.414500 11.413902 75.793990 2.187812 2.846421 -11.326024 0.000000 -0.000000 0.000000 -9.624034 -4.214245 -9.918670 8.213286 -3.904475 43.514989 0.332844 -2.327340 -27.767116 0.000000 -0.000000 0.000000 3.374124 5.080211 22.037942 5.247301 -6.335014 7.694021 1.266386 -3.111086 1.010878 -5.571481 22.832087 -3.356281 -16.826692 20.495425 -14.789047 -21.653943 5.202766 11.318163 -51.880283 35.615958 -5.494952 -13.483699 -21.586528 31.786095 -1.120409 -4.479246 -1.362100 20.339545 -1.713820 -0.188801 61.829393 7.343738 9.689770 -140.270191 55.822424 -128.017365 -3.914818 9.682094 -43.776699 
0.541086 0.766822 0.916068 142.867368 4.815106 97.563347 -1.088076 2.142490 -35.582810 -11.588554 15.397145 62.909008 2.612739 2.272684 -12.550436 0.000000 -0.000000 0.000000 -10.446445 -5.090491 0.329700 8.323330 -1.757655 35.153790 7.627577 4.525559 -13.505270 0.000000 -0.000000 0.000000 1.716863 7.679334 20.926922 5.249228 -7.320310 8.932832 1.708815 -2.230782 0.181814 -4.475507 21.660700 -2.675851 -15.001378 20.107790 -14.662157 -23.821256 8.459641 10.560218 -57.178137 36.013176 -4.254733 -13.088672 -20.428189 32.641396 -5.890910 -4.161051 -1.459087 21.969809 -4.221562 0.133650 61.616331 6.202357 10.199031 -135.142502 58.822829 -127.961790 -1.082957 10.539664 -54.602559 
0.600454 0.849708 0.932616 145.639449 5.198402 99.032562 -1.680228 -0.871573 -38.489203 -10.788726 18.667742 47.681172 2.767499 2.128830 -12.536628 0.000000 -0.000000 0.000000 -10.730242 -5.522579 8.675933 6.370783 0.001031 26.853795 15.824907 7.372965 3.110503 0.000000 -0.000000 0.000000 -0.461222 10.400487 18.628714 5.195210 -7.892158 9.035266 2.697202 -1.664216 -0.374325 -3.201497 18.870133 -1.169331 -11.824092 19.349883 -14.382179 -25.129873 11.076867 10.252809 -64.207831 34.648689 -3.727063 -11.096087 -21.381193 32.820558 -9.296800 -5.286202 -1.864556 22.531292 -6.642276 0.508155 60.977987 4.941935 9.963774 -129.767973 61.185357 -125.141197 1.739404 11.189396 -61.533759 
